<svg id="Capa_1" enable-background="new 0 0 512 512" height="512" viewBox="0 0 512 512" width="512" xmlns="http://www.w3.org/2000/svg"><g><path d="m319.898 167.72c-5.857-5.857-15.354-5.858-21.213 0l-41.26 41.259-44.111-44.111c-5.857-5.858-15.355-5.858-21.213 0s-5.858 15.355 0 21.213l50.324 50.324v49.402c0 8.284 6.716 15 15 15s15-6.716 15-15v-49.402l47.473-47.472c5.858-5.857 5.858-15.355 0-21.213z" fill="#47419b"/><path d="m298.686 167.72-41.26 41.259-.426-.425v92.232c.143.004.282.021.426.021 8.284 0 15-6.716 15-15v-49.402l47.473-47.472c5.858-5.857 5.858-15.355 0-21.213-5.858-5.857-15.355-5.858-21.213 0z" fill="#2c3b73"/><path d="m396.378 0c-63.754 0-115.622 51.906-115.622 115.708 0 38.922 19.303 73.417 48.832 94.401l66.79-18.693 64.6 20.212c30.761-20.815 51.022-56.045 51.022-95.92 0-63.802-51.868-115.708-115.622-115.708z" fill="#615ad3"/><path d="m115.622 0c-63.754 0-115.622 51.906-115.622 115.708 0 38.922 19.303 73.417 48.832 94.401l66.79-18.693 64.6 20.212c30.761-20.814 51.021-56.044 51.021-95.92.001-63.802-51.867-115.708-115.621-115.708z" fill="#ff6680"/><path d="m115.622 0v191.415l64.6 20.212c30.761-20.814 51.021-56.044 51.021-95.92.001-63.801-51.867-115.707-115.621-115.707z" fill="#e62e6b"/><path d="m396.378 0v191.415l64.6 20.212c30.761-20.814 51.022-56.044 51.022-95.919 0-63.802-51.868-115.708-115.622-115.708z" fill="#47419b"/><path d="m256 280.585c-63.754 0-115.622 51.906-115.622 115.708 0 38.922 19.303 73.417 48.832 94.401l66.79-18.694 64.6 20.212c30.761-20.814 51.021-56.044 51.021-95.92.001-63.801-51.867-115.707-115.621-115.707z" fill="#5ce6b8"/><path d="m256 280.585v191.415l64.6 20.212c30.761-20.814 51.021-56.044 51.021-95.92.001-63.801-51.867-115.707-115.621-115.707z" fill="#3dccb4"/><path d="m256 420.875c-34.546 0-63.226 25.906-66.713 60.26-.051.503-.077 1.009-.077 1.515v8.043c18.876 13.413 41.929 21.307 66.79 21.307s47.914-7.894 66.79-21.308v-8.043c0-.506-.025-1.011-.077-1.515-3.487-34.353-32.167-60.259-66.713-60.259z" fill="#615ad3"/><path d="m256 420.875v91.125c24.861 0 47.914-7.894 66.79-21.308v-8.043c0-.506-.025-1.011-.077-1.515-3.487-34.353-32.167-60.259-66.713-60.259z" fill="#47419b"/><ellipse cx="256" cy="401.513" fill="#f1d0a4" rx="49.361" ry="49.332" transform="matrix(.002 -1 1 .002 -146.046 656.676)"/><path d="m256 352.152v98.722c27.202 0 49.332-22.144 49.332-49.361s-22.13-49.361-49.332-49.361z" fill="#f1ba87"/><path d="m115.622 140.29c-34.546 0-63.226 25.906-66.713 60.26-.051.503-.077 1.009-.077 1.515v8.043c18.875 13.414 41.928 21.308 66.79 21.308 24.861 0 47.914-7.894 66.79-21.308v-8.043c0-.506-.025-1.011-.077-1.515-3.487-34.354-32.167-60.26-66.713-60.26z" fill="#ffd830"/><path d="m115.622 140.29v91.125c24.861 0 47.914-7.894 66.79-21.308v-8.043c0-.506-.025-1.011-.077-1.515-3.487-34.353-32.167-60.259-66.713-60.259z" fill="#ffb44b"/><ellipse cx="115.622" cy="120.928" fill="#f1d0a4" rx="49.361" ry="49.332" transform="matrix(.002 -1 1 .002 -5.547 236.298)"/><path d="m115.622 71.567v98.722c27.202 0 49.332-22.144 49.332-49.361s-22.13-49.361-49.332-49.361z" fill="#f1ba87"/><path d="m396.378 140.29c-34.546 0-63.226 25.906-66.713 60.26-.051.503-.077 1.009-.077 1.515v8.043c18.875 13.414 41.928 21.308 66.79 21.308 24.861 0 47.914-7.894 66.79-21.308v-8.043c0-.506-.025-1.011-.077-1.515-3.486-34.354-32.167-60.26-66.713-60.26z" fill="#5ce6b8"/><path d="m396.378 140.29v91.125c24.861 0 47.914-7.894 66.79-21.308v-8.043c0-.506-.025-1.011-.077-1.515-3.486-34.353-32.167-60.259-66.713-60.259z" fill="#3dccb4"/><ellipse cx="396.378" cy="120.928" fill="#f1d0a4" rx="49.361" ry="49.332" transform="matrix(.002 -1 1 .002 274.624 517.054)"/><path d="m396.378 71.567v98.722c27.202 0 49.332-22.144 49.332-49.361s-22.13-49.361-49.332-49.361z" fill="#f1ba87"/></g></svg>