<svg id="Capa_1" enable-background="new 0 0 512 512" height="512" viewBox="0 0 512 512" width="512" xmlns="http://www.w3.org/2000/svg" xmlns:xlink="http://www.w3.org/1999/xlink"><linearGradient id="SVGID_1_" gradientUnits="userSpaceOnUse" x1="283.466" x2="283.466" y1="418.719" y2="93.282"><stop offset="0" stop-color="#ffc2cc"/><stop offset="1" stop-color="#fff2f4"/></linearGradient><linearGradient id="SVGID_2_" gradientUnits="userSpaceOnUse" x1="256" x2="256" y1="512" y2="0"><stop offset="0" stop-color="#fd3a84"/><stop offset="1" stop-color="#ffa68d"/></linearGradient><g><g><g><path d="m219.174 218.573 145.225-97.812c6.885-4.6 8.76-13.901 4.16-20.801-4.629-6.929-13.975-8.73-20.801-4.16l-145.225 97.812c-6.885 4.6-8.76 13.901-4.16 20.801 4.642 6.939 13.953 8.725 20.801 4.16zm145.224 172.665-145.225-97.812c-6.855-4.57-16.172-2.739-20.801 4.16-4.6 6.899-2.725 16.201 4.16 20.801l145.225 97.812c6.837 4.558 16.152 2.79 20.801-4.16 4.6-6.899 2.725-16.201-4.16-20.801z" fill="url(#SVGID_1_)"/></g></g><g><g><path d="m136 151c-57.891 0-105 47.109-105 105s47.109 105 105 105 105-47.109 105-105-47.109-105-105-105zm270-1c41.367 0 75-33.647 75-75s-33.633-75-75-75-75 33.647-75 75 33.633 75 75 75zm0 212c-41.367 0-75 33.647-75 75s33.633 75 75 75 75-33.647 75-75-33.633-75-75-75z" fill="url(#SVGID_2_)"/></g></g></g></svg>